<svg width="506" height="21" viewBox="0 0 506 21" fill="none" xmlns="http://www.w3.org/2000/svg">
<path d="M157.428 10.1153H151.98V15.1354H157.428V10.1153Z" fill="#3A314B"/>
<path d="M157.428 5.09149H151.98V10.1116H157.428V5.09149Z" fill="#3A314B"/>
<path d="M151.98 15.1351H146.532V20.1552H151.98V15.1351Z" fill="#3A314B"/>
<path d="M151.98 10.1153H146.532V15.1354H151.98V10.1153Z" fill="white"/>
<path d="M151.98 5.09149H146.532V10.1116H151.98V5.09149Z" fill="white"/>
<path d="M151.98 0.0917779H146.532V5.11186H151.98V0.0917779Z" fill="#3A314B"/>
<path d="M146.532 15.1351H141.084V20.1552H146.532V15.1351Z" fill="#3A314B"/>
<path d="M146.532 10.1153H141.084V15.1354H146.532V10.1153Z" fill="white"/>
<path d="M146.532 5.09149H141.084V10.1116H146.532V5.09149Z" fill="white"/>
<path d="M146.532 0.0917779H141.084V5.11186H146.532V0.0917779Z" fill="#3A314B"/>
<path d="M141.084 15.1351H135.636V20.1552H141.084V15.1351Z" fill="#3A314B"/>
<path d="M141.084 10.1153H135.636V15.1354H141.084V10.1153Z" fill="white"/>
<path d="M141.084 5.09149H135.636V10.1116H141.084V5.09149Z" fill="white"/>
<path d="M141.084 0.0917779H135.636V5.11186H141.084V0.0917779Z" fill="#3A314B"/>
<path d="M135.628 15.1351H130.135V20.1552H135.628V15.1351Z" fill="#3A314B"/>
<path d="M135.628 10.1153H130.135V15.1354H135.628V10.1153Z" fill="white"/>
<path d="M135.628 5.09149H130.135V10.1116H135.628V5.09149Z" fill="white"/>
<path d="M135.628 0.0917779H130.135V5.11186H135.628V0.0917779Z" fill="#3A314B"/>
<path d="M130.135 15.1351H124.687V20.1552H130.135V15.1351Z" fill="#3A314B"/>
<path d="M130.135 10.1153H124.687V15.1354H130.135V10.1153Z" fill="white"/>
<path d="M130.135 5.09149H124.687V10.1116H130.135V5.09149Z" fill="white"/>
<path d="M130.135 0.0917779H124.687V5.11186H130.135V0.0917779Z" fill="#3A314B"/>
<path d="M124.705 15.1351H119.256V20.1552H124.705V15.1351Z" fill="#3A314B"/>
<path d="M124.705 10.1153H119.256V15.1354H124.705V10.1153Z" fill="white"/>
<path d="M124.705 5.09149H119.256V10.1116H124.705V5.09149Z" fill="white"/>
<path d="M124.705 0.0917779H119.256V5.11186H124.705V0.0917779Z" fill="#3A314B"/>
<path d="M119.257 15.1351H113.809V20.1552H119.257V15.1351Z" fill="#3A314B"/>
<path d="M119.257 10.1153H113.809V15.1354H119.257V10.1153Z" fill="white"/>
<path d="M119.257 5.09149H113.809V10.1116H119.257V5.09149Z" fill="white"/>
<path d="M119.257 0.0917779H113.809V5.11186H119.257V0.0917779Z" fill="#3A314B"/>
<path d="M113.819 15.1351H108.325V20.1552H113.819V15.1351Z" fill="#3A314B"/>
<path d="M113.819 10.1153H108.325V15.1354H113.819V10.1153Z" fill="white"/>
<path d="M113.819 5.09149H108.325V10.1116H113.819V5.09149Z" fill="white"/>
<path d="M113.819 0.0917779H108.325V5.11186H113.819V0.0917779Z" fill="#3A314B"/>
<path d="M108.332 15.1351H102.883V20.1552H108.332V15.1351Z" fill="#3A314B"/>
<path d="M108.332 10.1153H102.883V15.1354H108.332V10.1153Z" fill="white"/>
<path d="M108.332 5.09149H102.883V10.1116H108.332V5.09149Z" fill="white"/>
<path d="M108.332 0.0917779H102.883V5.11186H108.332V0.0917779Z" fill="#3A314B"/>
<path d="M102.884 15.1351H97.4353V20.1552H102.884V15.1351Z" fill="#3A314B"/>
<path d="M102.884 10.1153H97.4353V15.1354H102.884V10.1153Z" fill="white"/>
<path d="M102.884 5.09149H97.4353V10.1116H102.884V5.09149Z" fill="white"/>
<path d="M102.884 0.0917779H97.4353V5.11186H102.884V0.0917779Z" fill="#3A314B"/>
<path d="M97.4355 15.1351H91.9871V20.1552H97.4355V15.1351Z" fill="#3A314B"/>
<path d="M97.4355 10.1153H91.9871V15.1354H97.4355V10.1153Z" fill="white"/>
<path d="M97.4355 5.09149H91.9871V10.1116H97.4355V5.09149Z" fill="white"/>
<path d="M97.4355 0.0917779H91.9871V5.11186H97.4355V0.0917779Z" fill="#3A314B"/>
<path d="M91.9799 15.1351H86.4866V20.1552H91.9799V15.1351Z" fill="#3A314B"/>
<path d="M91.9799 10.1153H86.4866V15.1354H91.9799V10.1153Z" fill="white"/>
<path d="M91.9799 5.09149H86.4866V10.1116H91.9799V5.09149Z" fill="white"/>
<path d="M86.1839 9.99711H80.7355V15.0172H86.1839V9.99711Z" fill="white"/>
<path d="M86.1839 4.97327H80.7355V9.99335H86.1839V4.97327Z" fill="white"/>
<path d="M80.736 9.99711H75.2876V15.0172H80.736V9.99711Z" fill="white"/>
<path d="M80.736 4.97327H75.2876V9.99335H80.736V4.97327Z" fill="white"/>
<path d="M75.2878 9.99711H69.8394V15.0172H75.2878V9.99711Z" fill="white"/>
<path d="M75.2878 4.97327H69.8394V9.99335H75.2878V4.97327Z" fill="white"/>
<path d="M69.8322 9.99711H64.339V15.0172H69.8322V9.99711Z" fill="white"/>
<path d="M69.8322 4.97327H64.339V9.99335H69.8322V4.97327Z" fill="white"/>
<path d="M64.3392 9.99711H58.8908V15.0172H64.3392V9.99711Z" fill="white"/>
<path d="M64.3392 4.97327H58.8908V9.99335H64.3392V4.97327Z" fill="white"/>
<path d="M58.9087 9.99711H53.4603V15.0172H58.9087V9.99711Z" fill="white"/>
<path d="M58.9087 4.97327H53.4603V9.99335H58.9087V4.97327Z" fill="white"/>
<path d="M53.4605 9.99711H48.0121V15.0172H53.4605V9.99711Z" fill="white"/>
<path d="M53.4605 4.97327H48.0121V9.99335H53.4605V4.97327Z" fill="white"/>
<path d="M48.0225 9.99711H42.5293V15.0172H48.0225V9.99711Z" fill="white"/>
<path d="M48.0225 4.97327H42.5293V9.99335H48.0225V4.97327Z" fill="white"/>
<path d="M42.5354 9.99711H37.087V15.0172H42.5354V9.99711Z" fill="white"/>
<path d="M42.5354 4.97327H37.087V9.99335H42.5354V4.97327Z" fill="white"/>
<path d="M37.0874 9.99711H31.639V15.0172H37.0874V9.99711Z" fill="white"/>
<path d="M37.0874 4.97327H31.639V9.99335H37.0874V4.97327Z" fill="white"/>
<path d="M31.6393 9.99711H26.1909V15.0172H31.6393V9.99711Z" fill="white"/>
<path d="M31.6393 4.97327H26.1909V9.99335H31.6393V4.97327Z" fill="white"/>
<path d="M26.1837 9.99711H20.6904V15.0172H26.1837V9.99711Z" fill="white"/>
<path d="M26.1837 4.97327H20.6904V9.99335H26.1837V4.97327Z" fill="white"/>
<path d="M21.6857 9.99711H16.1925V15.0172H21.6857V9.99711Z" fill="white"/>
<path d="M21.6857 4.97327H16.1925V9.99335H21.6857V4.97327Z" fill="white"/>
<path d="M91.9799 0.0917779H86.4866V5.11186H91.9799V0.0917779Z" fill="#3A314B"/>
<path d="M86.4869 15.1351H81.0385V20.1552H86.4869V15.1351Z" fill="#3A314B"/>
<path d="M86.4869 0.0917779H81.0385V5.11186H86.4869V0.0917779Z" fill="#3A314B"/>
<path d="M81.0563 15.1351H75.6079V20.1552H81.0563V15.1351Z" fill="#3A314B"/>
<path d="M81.0563 0.0917779H75.6079V5.11186H81.0563V0.0917779Z" fill="#3A314B"/>
<path d="M75.6084 15.1351H70.16V20.1552H75.6084V15.1351Z" fill="#3A314B"/>
<path d="M75.6084 0.0917779H70.16V5.11186H75.6084V0.0917779Z" fill="#3A314B"/>
<path d="M70.1602 15.1351H64.7119V20.1552H70.1602V15.1351Z" fill="#3A314B"/>
<path d="M70.1602 0.0917779H64.7119V5.11186H70.1602V0.0917779Z" fill="#3A314B"/>
<path d="M64.7222 15.1351H59.229V20.1552H64.7222V15.1351Z" fill="#3A314B"/>
<path d="M64.7222 0.0917779H59.229V5.11186H64.7222V0.0917779Z" fill="#3A314B"/>
<path d="M59.2292 15.1351H53.7808V20.1552H59.2292V15.1351Z" fill="#3A314B"/>
<path d="M59.2292 0.0917779H53.7808V5.11186H59.2292V0.0917779Z" fill="#3A314B"/>
<path d="M53.7811 15.1351H48.3327V20.1552H53.7811V15.1351Z" fill="#3A314B"/>
<path d="M53.7811 0.0917779H48.3327V5.11186H53.7811V0.0917779Z" fill="#3A314B"/>
<path d="M48.3505 15.1351H42.9021V20.1552H48.3505V15.1351Z" fill="#3A314B"/>
<path d="M48.3505 0.0917779H42.9021V5.11186H48.3505V0.0917779Z" fill="#3A314B"/>
<path d="M42.8776 15.1351H37.3843V20.1552H42.8776V15.1351Z" fill="#3A314B"/>
<path d="M42.8776 0.0917779H37.3843V5.11186H42.8776V0.0917779Z" fill="#3A314B"/>
<path d="M37.4021 15.1351H31.9538V20.1552H37.4021V15.1351Z" fill="#3A314B"/>
<path d="M37.4021 0.0917779H31.9538V5.11186H37.4021V0.0917779Z" fill="#3A314B"/>
<path d="M31.9598 15.1351H26.5115V20.1552H31.9598V15.1351Z" fill="#3A314B"/>
<path d="M31.9598 0.0917779H26.5115V5.11186H31.9598V0.0917779Z" fill="#3A314B"/>
<path d="M26.5119 15.1351H21.0635V20.1552H26.5119V15.1351Z" fill="#3A314B"/>
<path d="M16.2939 9.99711H10.8455V15.0172H16.2939V9.99711Z" fill="#72C140"/>
<path d="M16.2939 4.97327H10.8455V9.99335H16.2939V4.97327Z" fill="#72C140"/>
<path d="M10.8457 9.99711H5.39734V15.0172H10.8457V9.99711Z" fill="#72C140"/>
<path d="M10.8457 4.97327H5.39734V9.99335H10.8457V4.97327Z" fill="#72C140"/>
<path d="M37.884 9.99711H32.4356V15.0172H37.884V9.99711Z" fill="#72C140"/>
<path d="M37.884 4.97327H32.4356V9.99335H37.884V4.97327Z" fill="#72C140"/>
<path d="M32.4358 9.99711H26.9874V15.0172H32.4358V9.99711Z" fill="#72C140"/>
<path d="M32.4358 4.97327H26.9874V9.99335H32.4358V4.97327Z" fill="#72C140"/>
<path d="M59.474 9.99711H54.0257V15.0172H59.474V9.99711Z" fill="#72C140"/>
<path d="M59.474 4.97327H54.0257V9.99335H59.474V4.97327Z" fill="#72C140"/>
<path d="M54.0261 9.99711H48.5777V15.0172H54.0261V9.99711Z" fill="#72C140"/>
<path d="M54.0261 4.97327H48.5777V9.99335H54.0261V4.97327Z" fill="#72C140"/>
<path d="M48.6791 9.99711H43.2307V15.0172H48.6791V9.99711Z" fill="#72C140"/>
<path d="M48.6791 4.97327H43.2307V9.99335H48.6791V4.97327Z" fill="#72C140"/>
<path d="M43.231 9.99711H37.7826V15.0172H43.231V9.99711Z" fill="#72C140"/>
<path d="M43.231 4.97327H37.7826V9.99335H43.231V4.97327Z" fill="#72C140"/>
<path d="M27.0888 9.99711H21.6404V15.0172H27.0888V9.99711Z" fill="#72C140"/>
<path d="M27.0888 4.97327H21.6404V9.99335H27.0888V4.97327Z" fill="#72C140"/>
<path d="M21.6409 9.99711H16.1925V15.0172H21.6409V9.99711Z" fill="#72C140"/>
<path d="M21.6409 4.97327H16.1925V9.99335H21.6409V4.97327Z" fill="#72C140"/>
<path d="M26.5119 0.0917779H21.0635V5.11186H26.5119V0.0917779Z" fill="#3A314B"/>
<path d="M151.98 0.0917779H146.532V5.11186H151.98V0.0917779Z" fill="#3A314B"/>
<path d="M244.22 10.0236H238.772V15.0436H244.22V10.0236Z" fill="#3A314B"/>
<path d="M244.22 4.99971H238.772V10.0198H244.22V4.99971Z" fill="#3A314B"/>
<path d="M238.772 15.0434H233.324V20.0635H238.772V15.0434Z" fill="#3A314B"/>
<path d="M238.772 10.0236H233.324V15.0436H238.772V10.0236Z" fill="white"/>
<path d="M238.772 4.99971H233.324V10.0198H238.772V4.99971Z" fill="white"/>
<path d="M233.324 15.0434H227.876V20.0635H233.324V15.0434Z" fill="#3A314B"/>
<path d="M233.324 10.0236H227.876V15.0436H233.324V10.0236Z" fill="white"/>
<path d="M233.324 4.99971H227.876V10.0198H233.324V4.99971Z" fill="white"/>
<path d="M233.324 0H227.876V5.02009H233.324V0Z" fill="#3A314B"/>
<path d="M227.876 15.0434H222.427V20.0635H227.876V15.0434Z" fill="#3A314B"/>
<path d="M227.876 10.0236H222.427V15.0436H227.876V10.0236Z" fill="white"/>
<path d="M227.876 4.99971H222.427V10.0198H227.876V4.99971Z" fill="white"/>
<path d="M227.876 0H222.427V5.02009H227.876V0Z" fill="#3A314B"/>
<path d="M222.42 15.0434H216.927V20.0635H222.42V15.0434Z" fill="#3A314B"/>
<path d="M222.42 10.0236H216.927V15.0436H222.42V10.0236Z" fill="white"/>
<path d="M222.42 4.99971H216.927V10.0198H222.42V4.99971Z" fill="white"/>
<path d="M222.42 0H216.927V5.02009H222.42V0Z" fill="#3A314B"/>
<path d="M216.927 15.0434H211.479V20.0635H216.927V15.0434Z" fill="#3A314B"/>
<path d="M216.927 10.0236H211.479V15.0436H216.927V10.0236Z" fill="white"/>
<path d="M216.927 4.99971H211.479V10.0198H216.927V4.99971Z" fill="white"/>
<path d="M216.927 0H211.479V5.02009H216.927V0Z" fill="#3A314B"/>
<path d="M211.497 15.0434H206.048V20.0635H211.497V15.0434Z" fill="#3A314B"/>
<path d="M211.497 10.0236H206.048V15.0436H211.497V10.0236Z" fill="white"/>
<path d="M211.497 4.99971H206.048V10.0198H211.497V4.99971Z" fill="white"/>
<path d="M211.497 0H206.048V5.02009H211.497V0Z" fill="#3A314B"/>
<path d="M206.049 15.0434H200.6V20.0635H206.049V15.0434Z" fill="#3A314B"/>
<path d="M206.049 10.0236H200.6V15.0436H206.049V10.0236Z" fill="white"/>
<path d="M206.049 4.99971H200.6V10.0198H206.049V4.99971Z" fill="white"/>
<path d="M206.049 0H200.6V5.02009H206.049V0Z" fill="#3A314B"/>
<path d="M200.611 15.0434H195.117V20.0635H200.611V15.0434Z" fill="#3A314B"/>
<path d="M200.611 10.0236H195.117V15.0436H200.611V10.0236Z" fill="white"/>
<path d="M200.611 4.99971H195.117V10.0198H200.611V4.99971Z" fill="white"/>
<path d="M200.611 0H195.117V5.02009H200.611V0Z" fill="#3A314B"/>
<path d="M195.123 15.0434H189.675V20.0635H195.123V15.0434Z" fill="#3A314B"/>
<path d="M195.123 10.0236H189.675V15.0436H195.123V10.0236Z" fill="white"/>
<path d="M195.123 4.99971H189.675V10.0198H195.123V4.99971Z" fill="white"/>
<path d="M195.123 0H189.675V5.02009H195.123V0Z" fill="#3A314B"/>
<path d="M189.675 15.0434H184.227V20.0635H189.675V15.0434Z" fill="#3A314B"/>
<path d="M189.675 10.0236H184.227V15.0436H189.675V10.0236Z" fill="white"/>
<path d="M189.675 4.99971H184.227V10.0198H189.675V4.99971Z" fill="white"/>
<path d="M189.675 0H184.227V5.02009H189.675V0Z" fill="#3A314B"/>
<path d="M184.227 15.0434H178.779V20.0635H184.227V15.0434Z" fill="#3A314B"/>
<path d="M184.227 10.0236H178.779V15.0436H184.227V10.0236Z" fill="white"/>
<path d="M184.227 4.99971H178.779V10.0198H184.227V4.99971Z" fill="white"/>
<path d="M184.227 0H178.779V5.02009H184.227V0Z" fill="#3A314B"/>
<path d="M178.772 15.0434H173.278V20.0635H178.772V15.0434Z" fill="#3A314B"/>
<path d="M178.772 10.0236H173.278V15.0436H178.772V10.0236Z" fill="white"/>
<path d="M178.772 4.99971H173.278V10.0198H178.772V4.99971Z" fill="white"/>
<path d="M172.976 9.90536H167.527V14.9254H172.976V9.90536Z" fill="white"/>
<path d="M172.976 4.88149H167.527V9.90157H172.976V4.88149Z" fill="white"/>
<path d="M167.528 9.90536H162.079V14.9254H167.528V9.90536Z" fill="white"/>
<path d="M167.528 4.88149H162.079V9.90157H167.528V4.88149Z" fill="white"/>
<path d="M162.08 9.90536H156.631V14.9254H162.08V9.90536Z" fill="white"/>
<path d="M162.08 4.88149H156.631V9.90157H162.08V4.88149Z" fill="white"/>
<path d="M156.624 9.90536H151.131V14.9254H156.624V9.90536Z" fill="white"/>
<path d="M156.624 4.88149H151.131V9.90157H156.624V4.88149Z" fill="white"/>
<path d="M178.772 0H173.278V5.02009H178.772V0Z" fill="#3A314B"/>
<path d="M173.279 15.0434H167.83V20.0635H173.279V15.0434Z" fill="#3A314B"/>
<path d="M173.279 0H167.83V5.02009H173.279V0Z" fill="#3A314B"/>
<path d="M167.848 15.0434H162.4V20.0635H167.848V15.0434Z" fill="#3A314B"/>
<path d="M167.848 0H162.4V5.02009H167.848V0Z" fill="#3A314B"/>
<path d="M162.4 15.0434H156.952V20.0635H162.4V15.0434Z" fill="#3A314B"/>
<path d="M162.4 0H156.952V5.02009H162.4V0Z" fill="#3A314B"/>
<path d="M156.952 15.0434H151.504V20.0635H156.952V15.0434Z" fill="#3A314B"/>
<path d="M156.952 0H151.504V5.02009H156.952V0Z" fill="#3A314B"/>
<path d="M238.772 0H233.324V5.02009H238.772V0Z" fill="#3A314B"/>
<path d="M331.48 10.0236H326.032V15.0436H331.48V10.0236Z" fill="#3A314B"/>
<path d="M331.48 4.99971H326.032V10.0198H331.48V4.99971Z" fill="#3A314B"/>
<path d="M326.032 15.0434H320.584V20.0635H326.032V15.0434Z" fill="#3A314B"/>
<path d="M326.032 10.0236H320.584V15.0436H326.032V10.0236Z" fill="white"/>
<path d="M326.032 4.99971H320.584V10.0198H326.032V4.99971Z" fill="white"/>
<path d="M320.584 15.0434H315.136V20.0635H320.584V15.0434Z" fill="#3A314B"/>
<path d="M320.584 10.0236H315.136V15.0436H320.584V10.0236Z" fill="white"/>
<path d="M320.584 4.99971H315.136V10.0198H320.584V4.99971Z" fill="white"/>
<path d="M320.584 0H315.136V5.02009H320.584V0Z" fill="#3A314B"/>
<path d="M315.136 15.0434H309.687V20.0635H315.136V15.0434Z" fill="#3A314B"/>
<path d="M315.136 10.0236H309.687V15.0436H315.136V10.0236Z" fill="white"/>
<path d="M315.136 4.99971H309.687V10.0198H315.136V4.99971Z" fill="white"/>
<path d="M315.136 0H309.687V5.02009H315.136V0Z" fill="#3A314B"/>
<path d="M309.68 15.0434H304.187V20.0635H309.68V15.0434Z" fill="#3A314B"/>
<path d="M309.68 10.0236H304.187V15.0436H309.68V10.0236Z" fill="white"/>
<path d="M309.68 4.99971H304.187V10.0198H309.68V4.99971Z" fill="white"/>
<path d="M309.68 0H304.187V5.02009H309.68V0Z" fill="#3A314B"/>
<path d="M304.187 15.0434H298.739V20.0635H304.187V15.0434Z" fill="#3A314B"/>
<path d="M304.187 10.0236H298.739V15.0436H304.187V10.0236Z" fill="white"/>
<path d="M304.187 4.99971H298.739V10.0198H304.187V4.99971Z" fill="white"/>
<path d="M304.187 0H298.739V5.02009H304.187V0Z" fill="#3A314B"/>
<path d="M298.757 15.0434H293.308V20.0635H298.757V15.0434Z" fill="#3A314B"/>
<path d="M298.757 10.0236H293.308V15.0436H298.757V10.0236Z" fill="white"/>
<path d="M298.757 4.99971H293.308V10.0198H298.757V4.99971Z" fill="white"/>
<path d="M298.757 0H293.308V5.02009H298.757V0Z" fill="#3A314B"/>
<path d="M293.309 15.0434H287.86V20.0635H293.309V15.0434Z" fill="#3A314B"/>
<path d="M293.309 10.0236H287.86V15.0436H293.309V10.0236Z" fill="white"/>
<path d="M293.309 4.99971H287.86V10.0198H293.309V4.99971Z" fill="white"/>
<path d="M293.309 0H287.86V5.02009H293.309V0Z" fill="#3A314B"/>
<path d="M287.87 15.0434H282.377V20.0635H287.87V15.0434Z" fill="#3A314B"/>
<path d="M287.87 10.0236H282.377V15.0436H287.87V10.0236Z" fill="white"/>
<path d="M287.87 4.99971H282.377V10.0198H287.87V4.99971Z" fill="white"/>
<path d="M287.87 0H282.377V5.02009H287.87V0Z" fill="#3A314B"/>
<path d="M282.384 15.0434H276.935V20.0635H282.384V15.0434Z" fill="#3A314B"/>
<path d="M282.384 10.0236H276.935V15.0436H282.384V10.0236Z" fill="white"/>
<path d="M282.384 4.99971H276.935V10.0198H282.384V4.99971Z" fill="white"/>
<path d="M282.384 0H276.935V5.02009H282.384V0Z" fill="#3A314B"/>
<path d="M276.935 15.0434H271.487V20.0635H276.935V15.0434Z" fill="#3A314B"/>
<path d="M276.935 10.0236H271.487V15.0436H276.935V10.0236Z" fill="white"/>
<path d="M276.935 4.99971H271.487V10.0198H276.935V4.99971Z" fill="white"/>
<path d="M276.935 0H271.487V5.02009H276.935V0Z" fill="#3A314B"/>
<path d="M271.488 15.0434H266.039V20.0635H271.488V15.0434Z" fill="#3A314B"/>
<path d="M271.488 10.0236H266.039V15.0436H271.488V10.0236Z" fill="white"/>
<path d="M271.488 4.99971H266.039V10.0198H271.488V4.99971Z" fill="white"/>
<path d="M271.488 0H266.039V5.02009H271.488V0Z" fill="#3A314B"/>
<path d="M266.032 15.0434H260.538V20.0635H266.032V15.0434Z" fill="#3A314B"/>
<path d="M266.032 10.0236H260.538V15.0436H266.032V10.0236Z" fill="white"/>
<path d="M266.032 4.99971H260.538V10.0198H266.032V4.99971Z" fill="white"/>
<path d="M260.236 9.90536H254.787V14.9254H260.236V9.90536Z" fill="white"/>
<path d="M260.236 4.88149H254.787V9.90157H260.236V4.88149Z" fill="white"/>
<path d="M254.788 9.90536H249.339V14.9254H254.788V9.90536Z" fill="white"/>
<path d="M254.788 4.88149H249.339V9.90157H254.788V4.88149Z" fill="white"/>
<path d="M249.34 9.90536H243.891V14.9254H249.34V9.90536Z" fill="white"/>
<path d="M249.34 4.88149H243.891V9.90157H249.34V4.88149Z" fill="white"/>
<path d="M243.884 9.90536H238.391V14.9254H243.884V9.90536Z" fill="white"/>
<path d="M243.884 4.88149H238.391V9.90157H243.884V4.88149Z" fill="white"/>
<path d="M266.032 0H260.538V5.02009H266.032V0Z" fill="#3A314B"/>
<path d="M260.539 15.0434H255.091V20.0635H260.539V15.0434Z" fill="#3A314B"/>
<path d="M260.539 0H255.091V5.02009H260.539V0Z" fill="#3A314B"/>
<path d="M255.108 15.0434H249.66V20.0635H255.108V15.0434Z" fill="#3A314B"/>
<path d="M255.108 0H249.66V5.02009H255.108V0Z" fill="#3A314B"/>
<path d="M249.66 15.0434H244.212V20.0635H249.66V15.0434Z" fill="#3A314B"/>
<path d="M249.66 0H244.212V5.02009H249.66V0Z" fill="#3A314B"/>
<path d="M244.212 15.0434H238.764V20.0635H244.212V15.0434Z" fill="#3A314B"/>
<path d="M244.212 0H238.764V5.02009H244.212V0Z" fill="#3A314B"/>
<path d="M326.032 0H320.584V5.02009H326.032V0Z" fill="#3A314B"/>
<path d="M418.74 10.0236H413.292V15.0436H418.74V10.0236Z" fill="#3A314B"/>
<path d="M418.74 4.99971H413.292V10.0198H418.74V4.99971Z" fill="#3A314B"/>
<path d="M413.292 15.0434H407.844V20.0635H413.292V15.0434Z" fill="#3A314B"/>
<path d="M413.292 10.0236H407.844V15.0436H413.292V10.0236Z" fill="white"/>
<path d="M413.292 4.99971H407.844V10.0198H413.292V4.99971Z" fill="white"/>
<path d="M407.844 15.0434H402.396V20.0635H407.844V15.0434Z" fill="#3A314B"/>
<path d="M407.844 10.0236H402.396V15.0436H407.844V10.0236Z" fill="white"/>
<path d="M407.844 4.99971H402.396V10.0198H407.844V4.99971Z" fill="white"/>
<path d="M407.844 0H402.396V5.02009H407.844V0Z" fill="#3A314B"/>
<path d="M402.396 15.0434H396.948V20.0635H402.396V15.0434Z" fill="#3A314B"/>
<path d="M402.396 10.0236H396.948V15.0436H402.396V10.0236Z" fill="white"/>
<path d="M402.396 4.99971H396.948V10.0198H402.396V4.99971Z" fill="white"/>
<path d="M402.396 0H396.948V5.02009H402.396V0Z" fill="#3A314B"/>
<path d="M396.94 15.0434H391.447V20.0635H396.94V15.0434Z" fill="#3A314B"/>
<path d="M396.94 10.0236H391.447V15.0436H396.94V10.0236Z" fill="white"/>
<path d="M396.94 4.99971H391.447V10.0198H396.94V4.99971Z" fill="white"/>
<path d="M396.94 0H391.447V5.02009H396.94V0Z" fill="#3A314B"/>
<path d="M391.447 15.0434H385.999V20.0635H391.447V15.0434Z" fill="#3A314B"/>
<path d="M391.447 10.0236H385.999V15.0436H391.447V10.0236Z" fill="white"/>
<path d="M391.447 4.99971H385.999V10.0198H391.447V4.99971Z" fill="white"/>
<path d="M391.447 0H385.999V5.02009H391.447V0Z" fill="#3A314B"/>
<path d="M386.017 15.0434H380.568V20.0635H386.017V15.0434Z" fill="#3A314B"/>
<path d="M386.017 10.0236H380.568V15.0436H386.017V10.0236Z" fill="white"/>
<path d="M386.017 4.99971H380.568V10.0198H386.017V4.99971Z" fill="white"/>
<path d="M386.017 0H380.568V5.02009H386.017V0Z" fill="#3A314B"/>
<path d="M380.569 15.0434H375.12V20.0635H380.569V15.0434Z" fill="#3A314B"/>
<path d="M380.569 10.0236H375.12V15.0436H380.569V10.0236Z" fill="white"/>
<path d="M380.569 4.99971H375.12V10.0198H380.569V4.99971Z" fill="white"/>
<path d="M380.569 0H375.12V5.02009H380.569V0Z" fill="#3A314B"/>
<path d="M375.131 15.0434H369.637V20.0635H375.131V15.0434Z" fill="#3A314B"/>
<path d="M375.131 10.0236H369.637V15.0436H375.131V10.0236Z" fill="white"/>
<path d="M375.131 4.99971H369.637V10.0198H375.131V4.99971Z" fill="white"/>
<path d="M375.131 0H369.637V5.02009H375.131V0Z" fill="#3A314B"/>
<path d="M369.644 15.0434H364.195V20.0635H369.644V15.0434Z" fill="#3A314B"/>
<path d="M369.644 10.0236H364.195V15.0436H369.644V10.0236Z" fill="white"/>
<path d="M369.644 4.99971H364.195V10.0198H369.644V4.99971Z" fill="white"/>
<path d="M369.644 0H364.195V5.02009H369.644V0Z" fill="#3A314B"/>
<path d="M364.196 15.0434H358.747V20.0635H364.196V15.0434Z" fill="#3A314B"/>
<path d="M364.196 10.0236H358.747V15.0436H364.196V10.0236Z" fill="white"/>
<path d="M364.196 4.99971H358.747V10.0198H364.196V4.99971Z" fill="white"/>
<path d="M364.196 0H358.747V5.02009H364.196V0Z" fill="#3A314B"/>
<path d="M358.747 15.0434H353.299V20.0635H358.747V15.0434Z" fill="#3A314B"/>
<path d="M358.747 10.0236H353.299V15.0436H358.747V10.0236Z" fill="white"/>
<path d="M358.747 4.99971H353.299V10.0198H358.747V4.99971Z" fill="white"/>
<path d="M358.747 0H353.299V5.02009H358.747V0Z" fill="#3A314B"/>
<path d="M353.292 15.0434H347.799V20.0635H353.292V15.0434Z" fill="#3A314B"/>
<path d="M353.292 10.0236H347.799V15.0436H353.292V10.0236Z" fill="white"/>
<path d="M353.292 4.99971H347.799V10.0198H353.292V4.99971Z" fill="white"/>
<path d="M347.496 9.90536H342.048V14.9254H347.496V9.90536Z" fill="white"/>
<path d="M347.496 4.88149H342.048V9.90157H347.496V4.88149Z" fill="white"/>
<path d="M342.048 9.90536H336.599V14.9254H342.048V9.90536Z" fill="white"/>
<path d="M342.048 4.88149H336.599V9.90157H342.048V4.88149Z" fill="white"/>
<path d="M336.6 9.90536H331.151V14.9254H336.6V9.90536Z" fill="white"/>
<path d="M336.6 4.88149H331.151V9.90157H336.6V4.88149Z" fill="white"/>
<path d="M331.144 9.90536H325.651V14.9254H331.144V9.90536Z" fill="white"/>
<path d="M331.144 4.88149H325.651V9.90157H331.144V4.88149Z" fill="white"/>
<path d="M353.292 0H347.799V5.02009H353.292V0Z" fill="#3A314B"/>
<path d="M347.799 15.0434H342.35V20.0635H347.799V15.0434Z" fill="#3A314B"/>
<path d="M347.799 0H342.35V5.02009H347.799V0Z" fill="#3A314B"/>
<path d="M342.368 15.0434H336.92V20.0635H342.368V15.0434Z" fill="#3A314B"/>
<path d="M342.368 0H336.92V5.02009H342.368V0Z" fill="#3A314B"/>
<path d="M336.92 15.0434H331.472V20.0635H336.92V15.0434Z" fill="#3A314B"/>
<path d="M336.92 0H331.472V5.02009H336.92V0Z" fill="#3A314B"/>
<path d="M331.472 15.0434H326.024V20.0635H331.472V15.0434Z" fill="#3A314B"/>
<path d="M331.472 0H326.024V5.02009H331.472V0Z" fill="#3A314B"/>
<path d="M413.292 0H407.844V5.02009H413.292V0Z" fill="#3A314B"/>
<path d="M418.74 10.0236H413.292V15.0436H418.74V10.0236Z" fill="#3A314B"/>
<path d="M418.74 4.99971H413.292V10.0198H418.74V4.99971Z" fill="#3A314B"/>
<path d="M413.292 15.0434H407.844V20.0635H413.292V15.0434Z" fill="#3A314B"/>
<path d="M413.292 10.0236H407.844V15.0436H413.292V10.0236Z" fill="white"/>
<path d="M413.292 4.99971H407.844V10.0198H413.292V4.99971Z" fill="white"/>
<path d="M407.844 15.0434H402.396V20.0635H407.844V15.0434Z" fill="#3A314B"/>
<path d="M407.844 10.0236H402.396V15.0436H407.844V10.0236Z" fill="white"/>
<path d="M407.844 4.99971H402.396V10.0198H407.844V4.99971Z" fill="white"/>
<path d="M407.844 0H402.396V5.02009H407.844V0Z" fill="#3A314B"/>
<path d="M402.396 15.0434H396.948V20.0635H402.396V15.0434Z" fill="#3A314B"/>
<path d="M402.396 10.0236H396.948V15.0436H402.396V10.0236Z" fill="white"/>
<path d="M402.396 4.99971H396.948V10.0198H402.396V4.99971Z" fill="white"/>
<path d="M402.396 0H396.948V5.02009H402.396V0Z" fill="#3A314B"/>
<path d="M396.94 15.0434H391.447V20.0635H396.94V15.0434Z" fill="#3A314B"/>
<path d="M396.94 10.0236H391.447V15.0436H396.94V10.0236Z" fill="white"/>
<path d="M396.94 4.99971H391.447V10.0198H396.94V4.99971Z" fill="white"/>
<path d="M396.94 0H391.447V5.02009H396.94V0Z" fill="#3A314B"/>
<path d="M391.447 15.0434H385.999V20.0635H391.447V15.0434Z" fill="#3A314B"/>
<path d="M391.447 10.0236H385.999V15.0436H391.447V10.0236Z" fill="white"/>
<path d="M391.447 4.99971H385.999V10.0198H391.447V4.99971Z" fill="white"/>
<path d="M391.447 0H385.999V5.02009H391.447V0Z" fill="#3A314B"/>
<path d="M386.017 15.0434H380.568V20.0635H386.017V15.0434Z" fill="#3A314B"/>
<path d="M386.017 10.0236H380.568V15.0436H386.017V10.0236Z" fill="white"/>
<path d="M386.017 4.99971H380.568V10.0198H386.017V4.99971Z" fill="white"/>
<path d="M386.017 0H380.568V5.02009H386.017V0Z" fill="#3A314B"/>
<path d="M380.569 15.0434H375.12V20.0635H380.569V15.0434Z" fill="#3A314B"/>
<path d="M380.569 10.0236H375.12V15.0436H380.569V10.0236Z" fill="white"/>
<path d="M380.569 4.99971H375.12V10.0198H380.569V4.99971Z" fill="white"/>
<path d="M380.569 0H375.12V5.02009H380.569V0Z" fill="#3A314B"/>
<path d="M375.131 15.0434H369.637V20.0635H375.131V15.0434Z" fill="#3A314B"/>
<path d="M375.131 10.0236H369.637V15.0436H375.131V10.0236Z" fill="white"/>
<path d="M375.131 4.99971H369.637V10.0198H375.131V4.99971Z" fill="white"/>
<path d="M375.131 0H369.637V5.02009H375.131V0Z" fill="#3A314B"/>
<path d="M369.644 15.0434H364.195V20.0635H369.644V15.0434Z" fill="#3A314B"/>
<path d="M369.644 10.0236H364.195V15.0436H369.644V10.0236Z" fill="white"/>
<path d="M369.644 4.99971H364.195V10.0198H369.644V4.99971Z" fill="white"/>
<path d="M369.644 0H364.195V5.02009H369.644V0Z" fill="#3A314B"/>
<path d="M364.196 15.0434H358.747V20.0635H364.196V15.0434Z" fill="#3A314B"/>
<path d="M364.196 10.0236H358.747V15.0436H364.196V10.0236Z" fill="white"/>
<path d="M364.196 4.99971H358.747V10.0198H364.196V4.99971Z" fill="white"/>
<path d="M364.196 0H358.747V5.02009H364.196V0Z" fill="#3A314B"/>
<path d="M358.747 15.0434H353.299V20.0635H358.747V15.0434Z" fill="#3A314B"/>
<path d="M358.747 10.0236H353.299V15.0436H358.747V10.0236Z" fill="white"/>
<path d="M358.747 4.99971H353.299V10.0198H358.747V4.99971Z" fill="white"/>
<path d="M358.747 0H353.299V5.02009H358.747V0Z" fill="#3A314B"/>
<path d="M353.292 15.0434H347.799V20.0635H353.292V15.0434Z" fill="#3A314B"/>
<path d="M353.292 10.0236H347.799V15.0436H353.292V10.0236Z" fill="white"/>
<path d="M353.292 4.99971H347.799V10.0198H353.292V4.99971Z" fill="white"/>
<path d="M347.496 9.90536H342.048V14.9254H347.496V9.90536Z" fill="white"/>
<path d="M347.496 4.88149H342.048V9.90157H347.496V4.88149Z" fill="white"/>
<path d="M342.048 9.90536H336.599V14.9254H342.048V9.90536Z" fill="white"/>
<path d="M342.048 4.88149H336.599V9.90157H342.048V4.88149Z" fill="white"/>
<path d="M336.6 9.90536H331.151V14.9254H336.6V9.90536Z" fill="white"/>
<path d="M336.6 4.88149H331.151V9.90157H336.6V4.88149Z" fill="white"/>
<path d="M331.144 9.90536H325.651V14.9254H331.144V9.90536Z" fill="white"/>
<path d="M331.144 4.88149H325.651V9.90157H331.144V4.88149Z" fill="white"/>
<path d="M353.292 0H347.799V5.02009H353.292V0Z" fill="#3A314B"/>
<path d="M347.799 15.0434H342.35V20.0635H347.799V15.0434Z" fill="#3A314B"/>
<path d="M347.799 0H342.35V5.02009H347.799V0Z" fill="#3A314B"/>
<path d="M342.368 15.0434H336.92V20.0635H342.368V15.0434Z" fill="#3A314B"/>
<path d="M342.368 0H336.92V5.02009H342.368V0Z" fill="#3A314B"/>
<path d="M336.92 15.0434H331.472V20.0635H336.92V15.0434Z" fill="#3A314B"/>
<path d="M336.92 0H331.472V5.02009H336.92V0Z" fill="#3A314B"/>
<path d="M331.472 15.0434H326.024V20.0635H331.472V15.0434Z" fill="#3A314B"/>
<path d="M331.472 0H326.024V5.02009H331.472V0Z" fill="#3A314B"/>
<path d="M413.292 0H407.844V5.02009H413.292V0Z" fill="#3A314B"/>
<path d="M506 10.0236H500.552V15.0436H506V10.0236Z" fill="#3A314B"/>
<path d="M506 4.99971H500.552V10.0198H506V4.99971Z" fill="#3A314B"/>
<path d="M500.552 15.0434H495.104V20.0635H500.552V15.0434Z" fill="#3A314B"/>
<path d="M500.552 10.0236H495.104V15.0436H500.552V10.0236Z" fill="white"/>
<path d="M500.552 4.99971H495.104V10.0198H500.552V4.99971Z" fill="white"/>
<path d="M495.104 15.0434H489.656V20.0635H495.104V15.0434Z" fill="#3A314B"/>
<path d="M495.104 10.0236H489.656V15.0436H495.104V10.0236Z" fill="white"/>
<path d="M495.104 4.99971H489.656V10.0198H495.104V4.99971Z" fill="white"/>
<path d="M495.104 0H489.656V5.02009H495.104V0Z" fill="#3A314B"/>
<path d="M489.656 15.0434H484.208V20.0635H489.656V15.0434Z" fill="#3A314B"/>
<path d="M489.656 10.0236H484.208V15.0436H489.656V10.0236Z" fill="white"/>
<path d="M489.656 4.99971H484.208V10.0198H489.656V4.99971Z" fill="white"/>
<path d="M489.656 0H484.208V5.02009H489.656V0Z" fill="#3A314B"/>
<path d="M484.2 15.0434H478.707V20.0635H484.2V15.0434Z" fill="#3A314B"/>
<path d="M484.2 10.0236H478.707V15.0436H484.2V10.0236Z" fill="white"/>
<path d="M484.2 4.99971H478.707V10.0198H484.2V4.99971Z" fill="white"/>
<path d="M484.2 0H478.707V5.02009H484.2V0Z" fill="#3A314B"/>
<path d="M478.708 15.0434H473.259V20.0635H478.708V15.0434Z" fill="#3A314B"/>
<path d="M478.708 10.0236H473.259V15.0436H478.708V10.0236Z" fill="white"/>
<path d="M478.708 4.99971H473.259V10.0198H478.708V4.99971Z" fill="white"/>
<path d="M478.708 0H473.259V5.02009H478.708V0Z" fill="#3A314B"/>
<path d="M473.277 15.0434H467.829V20.0635H473.277V15.0434Z" fill="#3A314B"/>
<path d="M473.277 10.0236H467.829V15.0436H473.277V10.0236Z" fill="white"/>
<path d="M473.277 4.99971H467.829V10.0198H473.277V4.99971Z" fill="white"/>
<path d="M473.277 0H467.829V5.02009H473.277V0Z" fill="#3A314B"/>
<path d="M467.829 15.0434H462.381V20.0635H467.829V15.0434Z" fill="#3A314B"/>
<path d="M467.829 10.0236H462.381V15.0436H467.829V10.0236Z" fill="white"/>
<path d="M467.829 4.99971H462.381V10.0198H467.829V4.99971Z" fill="white"/>
<path d="M467.829 0H462.381V5.02009H467.829V0Z" fill="#3A314B"/>
<path d="M462.391 15.0434H456.898V20.0635H462.391V15.0434Z" fill="#3A314B"/>
<path d="M462.391 10.0236H456.898V15.0436H462.391V10.0236Z" fill="white"/>
<path d="M462.391 4.99971H456.898V10.0198H462.391V4.99971Z" fill="white"/>
<path d="M462.391 0H456.898V5.02009H462.391V0Z" fill="#3A314B"/>
<path d="M456.904 15.0434H451.455V20.0635H456.904V15.0434Z" fill="#3A314B"/>
<path d="M456.904 10.0236H451.455V15.0436H456.904V10.0236Z" fill="white"/>
<path d="M456.904 4.99971H451.455V10.0198H456.904V4.99971Z" fill="white"/>
<path d="M456.904 0H451.455V5.02009H456.904V0Z" fill="#3A314B"/>
<path d="M451.456 15.0434H446.007V20.0635H451.456V15.0434Z" fill="#3A314B"/>
<path d="M451.456 10.0236H446.007V15.0436H451.456V10.0236Z" fill="white"/>
<path d="M451.456 4.99971H446.007V10.0198H451.456V4.99971Z" fill="white"/>
<path d="M451.456 0H446.007V5.02009H451.456V0Z" fill="#3A314B"/>
<path d="M446.007 15.0434H440.559V20.0635H446.007V15.0434Z" fill="#3A314B"/>
<path d="M446.007 10.0236H440.559V15.0436H446.007V10.0236Z" fill="white"/>
<path d="M446.007 4.99971H440.559V10.0198H446.007V4.99971Z" fill="white"/>
<path d="M446.007 0H440.559V5.02009H446.007V0Z" fill="#3A314B"/>
<path d="M440.552 15.0434H435.059V20.0635H440.552V15.0434Z" fill="#3A314B"/>
<path d="M440.552 10.0236H435.059V15.0436H440.552V10.0236Z" fill="white"/>
<path d="M440.552 4.99971H435.059V10.0198H440.552V4.99971Z" fill="white"/>
<path d="M434.756 9.90536H429.307V14.9254H434.756V9.90536Z" fill="white"/>
<path d="M434.756 4.88149H429.307V9.90157H434.756V4.88149Z" fill="white"/>
<path d="M429.308 9.90536H423.859V14.9254H429.308V9.90536Z" fill="white"/>
<path d="M429.308 4.88149H423.859V9.90157H429.308V4.88149Z" fill="white"/>
<path d="M423.86 9.90536H418.412V14.9254H423.86V9.90536Z" fill="white"/>
<path d="M423.86 4.88149H418.412V9.90157H423.86V4.88149Z" fill="white"/>
<path d="M418.404 9.90536H412.911V14.9254H418.404V9.90536Z" fill="white"/>
<path d="M418.404 4.88149H412.911V9.90157H418.404V4.88149Z" fill="white"/>
<path d="M440.552 0H435.059V5.02009H440.552V0Z" fill="#3A314B"/>
<path d="M435.059 15.0434H429.61V20.0635H435.059V15.0434Z" fill="#3A314B"/>
<path d="M435.059 0H429.61V5.02009H435.059V0Z" fill="#3A314B"/>
<path d="M429.628 15.0434H424.18V20.0635H429.628V15.0434Z" fill="#3A314B"/>
<path d="M429.628 0H424.18V5.02009H429.628V0Z" fill="#3A314B"/>
<path d="M424.18 15.0434H418.732V20.0635H424.18V15.0434Z" fill="#3A314B"/>
<path d="M424.18 0H418.732V5.02009H424.18V0Z" fill="#3A314B"/>
<path d="M418.732 15.0434H413.284V20.0635H418.732V15.0434Z" fill="#3A314B"/>
<path d="M418.732 0H413.284V5.02009H418.732V0Z" fill="#3A314B"/>
<path d="M500.552 0H495.104V5.02009H500.552V0Z" fill="#3A314B"/>
<path d="M21.6409 0H16.1925V5.02009H21.6409V0Z" fill="#3A314B"/>
<path d="M16.2433 0H10.7949V5.02009H16.2433V0Z" fill="#3A314B"/>
<path d="M10.8906 0H5.39734V5.02009H10.8906V0Z" fill="#3A314B"/>
<path d="M5.44839 4.97327H0V9.99335H5.44839V4.97327Z" fill="#3A314B"/>
<path d="M5.44839 9.94653H0V14.9666H5.44839V9.94653Z" fill="#3A314B"/>
<path d="M21.0638 15.1351H15.6154V20.1552H21.0638V15.1351Z" fill="#3A314B"/>
<path d="M15.6082 15.1351H10.1149V20.1552H15.6082V15.1351Z" fill="#3A314B"/>
<path d="M10.1152 15.1351H4.66678V20.1552H10.1152V15.1351Z" fill="#3A314B"/>
</svg>
